<svg xmlns="http://www.w3.org/2000/svg" width="199.968" height="43.375" viewBox="0 0 199.968 43.375">
  <defs>
    <style>
      .cls-1 {
        fill: #fff;
        fill-rule: evenodd;
      }
    </style>
  </defs>
  <path id="logo-mr-Shopper.svg" class="cls-1" d="M359.934,65.318a3.758,3.758,0,0,0,1.238-.84,1.166,1.166,0,0,1-.049.135,2.5,2.5,0,0,0-.221.711,0.31,0.31,0,0,0,.2.3,1.794,1.794,0,0,0,.681.092,4.889,4.889,0,0,0,1.048-.08,0.907,0.907,0,0,0,.484-0.264c0.032-.041.184-0.4,0.453-1.073s0.544-1.322.822-1.943a17.6,17.6,0,0,1,2.445-3.99q1.489-1.832,2.1-1.833a0.487,0.487,0,0,1,.35.123,0.468,0.468,0,0,1,.129.355,4.216,4.216,0,0,1-.252,1.134q-0.25.779-1.207,3.181-0.368.944-.938,2.255a7.5,7.5,0,0,0-.57,1.532,0.414,0.414,0,0,0,.356.392,4.945,4.945,0,0,0,1.274.11,1.519,1.519,0,0,0,1.459-1.14q0.355-.919.7-1.618a25.878,25.878,0,0,1,2.77-4.431q1.5-1.894,2.035-1.894a0.3,0.3,0,0,1,.245.092,0.509,0.509,0,0,1,.074.313,2.341,2.341,0,0,1-.147.625q-0.147.441-.6,1.606-0.159.38-.441,1.079a11.323,11.323,0,0,0-.993,3.212,1.776,1.776,0,0,0,.962,1.679,6.743,6.743,0,0,0,3.083.527h0.147l0.466-1.655a3.773,3.773,0,0,1-1.355-.251,0.658,0.658,0,0,1-.361-0.631,4.155,4.155,0,0,1,.171-0.925,11,11,0,0,1,.454-1.33l0.2-.49A19.8,19.8,0,0,0,378.7,55.7a1.5,1.5,0,0,0-.509-1.189,2.051,2.051,0,0,0-1.391-.441,3.772,3.772,0,0,0-2.538,1.146,28.405,28.405,0,0,0-3.64,4.811q0.87-1.876,1.25-2.905a5,5,0,0,0,.38-1.52,1.469,1.469,0,0,0-.435-1.122,1.636,1.636,0,0,0-1.171-.411,3.966,3.966,0,0,0-2.666,1.385,26.527,26.527,0,0,0-3.438,4.67q0.588-1.777,1.36-3.671a14.54,14.54,0,0,0,.773-2.1,0.448,0.448,0,0,0-.417-0.386,5.9,5.9,0,0,0-1.41-.117q-1.054,0-1.569,2.366-0.367,1.68-.7,2.856a11.389,11.389,0,0,1-1.63,3.739,2.824,2.824,0,0,1-2.182,1.2L358.3,65.667A4.839,4.839,0,0,0,359.934,65.318Zm22.219-1.863a22.29,22.29,0,0,0,3.39-6.822,6.86,6.86,0,0,1,1.078.729,0.79,0.79,0,0,1,.319.558,8.883,8.883,0,0,1-.925,2.568,8.154,8.154,0,0,0-.926,3.022,1.727,1.727,0,0,0,.969,1.649,7.259,7.259,0,0,0,3.174.509H389.6l0.478-1.643a6.1,6.1,0,0,1-1.747-.3,0.641,0.641,0,0,1-.337-0.619,8.347,8.347,0,0,1,.981-2.783,8.221,8.221,0,0,0,.981-2.856q0-.956-1.8-1.925-0.993-.552-1.618-0.944a2.14,2.14,0,0,0,.257-1.054,1.282,1.282,0,0,0-.392-0.981,1.5,1.5,0,0,0-1.067-.368,1.519,1.519,0,0,0-1.219.582,2.213,2.213,0,0,0-.485,1.465,2.131,2.131,0,0,0,.135.785,1.825,1.825,0,0,0,.417.625,30.276,30.276,0,0,1-2.917,6.294,4.427,4.427,0,0,1-2.783,2.066L378,65.667A5.71,5.71,0,0,0,382.153,63.454Zm8.743-.693a1.856,1.856,0,0,0-.5,1.373,1.569,1.569,0,0,0,.417,1.171,1.589,1.589,0,0,0,1.165.411,1.75,1.75,0,0,0,1.311-.515,1.865,1.865,0,0,0,.5-1.361,1.6,1.6,0,0,0-.411-1.152,1.448,1.448,0,0,0-1.1-.429A1.873,1.873,0,0,0,390.9,62.762Zm28.952,3.08a12.584,12.584,0,0,1-3.751.515,11.146,11.146,0,0,1-4.949-.946q-1.9-.946-1.9-2.375a1.245,1.245,0,0,1,.409-1.051,2.351,2.351,0,0,1,1.4-.315,21.459,21.459,0,0,1,3.793.62q2.784,0.62,7.912,2.007A8.605,8.605,0,0,1,419.848,65.842Zm9.015-.315q0.957,0.158,2.28.263l0.82-2.816q-0.821-.126-1.5-0.263t-1.292-.3a9.433,9.433,0,0,0,2.017-5.947,8.478,8.478,0,0,0-1.481-4.938,13.933,13.933,0,0,0-4.718-3.972q-0.252-.147-0.819-0.462-4.33-2.374-4.329-5.127a4.74,4.74,0,0,1,1.933-3.909,7.947,7.947,0,0,1,5.043-1.513,6.586,6.586,0,0,1,3.94,1.009,4.168,4.168,0,0,1,1.608,3.068h0.294a2.535,2.535,0,0,0,1.892-.7,2.621,2.621,0,0,0,.693-1.923,4.317,4.317,0,0,0-2.2-3.688,10,10,0,0,0-5.642-1.461,13.326,13.326,0,0,0-8.816,2.858,9.111,9.111,0,0,0-3.435,7.334,7.09,7.09,0,0,0,1.313,4.339,16.392,16.392,0,0,0,5.012,3.877,13.976,13.976,0,0,1,4.034,3.016,4.783,4.783,0,0,1,.862,2.889,6.865,6.865,0,0,1-.42,2.269,8.193,8.193,0,0,1-1.135,2.165l-4.1-1.114q-7.46-2.038-9.75-2.038a6.426,6.426,0,0,0-4.161,1.145,4.171,4.171,0,0,0-1.387,3.415,5.583,5.583,0,0,0,2.889,4.875,14.314,14.314,0,0,0,7.786,1.849,15.9,15.9,0,0,0,6.136-1.156,13.707,13.707,0,0,0,4.875-3.4Q427.908,65.369,428.863,65.527Zm7.53-.925a1.867,1.867,0,0,0-.115.557,0.564,0.564,0,0,0,.336.557,3.06,3.06,0,0,0,1.177.158,3.375,3.375,0,0,0,3.446-2.4q0.462-1.3.862-2.206a32.049,32.049,0,0,1,4.549-7.649q2.595-3.152,3.835-3.152a0.791,0.791,0,0,1,.557.168,0.692,0.692,0,0,1,.179.525,13.115,13.115,0,0,1-1.072,2.858l-0.168.4q-1.24,2.9-1.849,4.77a10.061,10.061,0,0,0-.61,2.774,3.108,3.108,0,0,0,1.608,2.9,10.527,10.527,0,0,0,5.054.925h0.483l0.8-2.837a6.509,6.509,0,0,1-2.333-.42,1.134,1.134,0,0,1-.588-1.093,6.762,6.762,0,0,1,.3-1.555,20.472,20.472,0,0,1,.83-2.354l0.5-1.282q2.459-6.136,2.458-7.544a2.592,2.592,0,0,0-.735-1.965,2.86,2.86,0,0,0-2.06-.7,8.1,8.1,0,0,0-5.327,2.448,36.186,36.186,0,0,0-6,7.765l6.85-17.358q0.168-.441.5-1.24a9.5,9.5,0,0,0,.819-2.585,0.786,0.786,0,0,0-.6-0.767,7.713,7.713,0,0,0-2.28-.221q-2.437,0-3.425,3.782-0.567,2.186-1.051,3.657l-4.392,13.7a18.439,18.439,0,0,1-2.763,5.905,4.823,4.823,0,0,1-3.541,1.828l-0.819,2.837a8.337,8.337,0,0,0,2.784-.6,6.485,6.485,0,0,0,2.154-1.461A7.858,7.858,0,0,0,436.393,64.6Zm33.682-4.875q-2.06,3.1-4.224,3.1a1.707,1.707,0,0,1-1.418-.651,2.846,2.846,0,0,1-.515-1.807,13.66,13.66,0,0,1,1.156-5.222,22.931,22.931,0,0,1,3.32-5.5,21.043,21.043,0,0,1,1.566-1.671,2.829,2.829,0,0,0,1.019-1.461,0.64,0.64,0,0,0-.263-0.536,1.174,1.174,0,0,0-.725-0.2,8.081,8.081,0,0,0-3.761,1.072,11.606,11.606,0,0,0-3.468,2.795,14.933,14.933,0,0,0-2.616,4.434,13.512,13.512,0,0,0-.956,4.833,10.045,10.045,0,0,0,.126,1.629,8.115,8.115,0,0,0,.378,1.46,6.522,6.522,0,0,1-1.649.651,10.9,10.9,0,0,1-2.07.294l-0.841,2.837a15.852,15.852,0,0,0,3.247-.431,13.829,13.829,0,0,0,2.868-1.061,4.823,4.823,0,0,0,1.881,1.187,7.818,7.818,0,0,0,2.6.389,6.905,6.905,0,0,0,3.846-1.166,12.017,12.017,0,0,0,3.341-3.52,18.386,18.386,0,0,0,2.28-4.844,17.614,17.614,0,0,0,.809-5.18,5.566,5.566,0,0,0-.777-3.173,2.5,2.5,0,0,0-2.186-1.135,2.68,2.68,0,0,0-2.122.977,3.649,3.649,0,0,0-.841,2.469,2.361,2.361,0,0,0,.547,1.639,2.614,2.614,0,0,0,1.6.777A12.9,12.9,0,0,1,470.075,59.727Zm14.43,5.506a5.946,5.946,0,0,0,1.744.263,9.122,9.122,0,0,0,2.291-.3,11.482,11.482,0,0,0,2.269-.851,9.814,9.814,0,0,0,2.711,1.093,13.519,13.519,0,0,0,3.194.357h0.547l0.819-2.837a17.057,17.057,0,0,1-2.574-.179,9.567,9.567,0,0,1-2.112-.557,20.37,20.37,0,0,0,4.518-5.39,11.428,11.428,0,0,0,1.555-5.579,5.58,5.58,0,0,0-1.408-3.94,4.677,4.677,0,0,0-3.593-1.523,6.247,6.247,0,0,0-4.256,1.828,28.566,28.566,0,0,0-4.7,6.43q0.735-2.311,1.87-5.779a35.126,35.126,0,0,0,1.408-4.77,0.757,0.757,0,0,0-.452-0.715,3.338,3.338,0,0,0-1.439-.231q-2.922,0-3.951,5.4-0.42,2.269-.757,3.741l-0.1.5q-2.311,10.465-6.43,10.759l-0.8,2.837a8.775,8.775,0,0,0,1.954-.315,6.317,6.317,0,0,0,1.6-.715q-0.777,2.711-2.07,6.336a21.1,21.1,0,0,0-1.292,4.423,0.576,0.576,0,0,0,.357.494,1.836,1.836,0,0,0,.9.2,6.794,6.794,0,0,0,2.742-.389,2.054,2.054,0,0,0,1.04-1.5q0.084-.336.21-0.967a77.078,77.078,0,0,1,2.459-8.889A8.521,8.521,0,0,0,484.505,65.233Zm3.919-12.44q2.385-3.141,4.318-3.142a1.832,1.832,0,0,1,1.556.767,3.448,3.448,0,0,1,.567,2.091,9.288,9.288,0,0,1-1.229,4.329,15.451,15.451,0,0,1-3.352,4.224,11.085,11.085,0,0,0-1.629-.494,6.862,6.862,0,0,0-1.418-.158,6.607,6.607,0,0,0-1.545.189,8.877,8.877,0,0,0-1.649.588A33.8,33.8,0,0,1,488.424,52.792Zm19.393,12.44a5.941,5.941,0,0,0,1.744.263,9.12,9.12,0,0,0,2.29-.3,11.49,11.49,0,0,0,2.27-.851,9.8,9.8,0,0,0,2.711,1.093,13.519,13.519,0,0,0,3.194.357h0.546l0.82-2.837a17.08,17.08,0,0,1-2.575-.179,9.573,9.573,0,0,1-2.111-.557,20.37,20.37,0,0,0,4.518-5.39,11.438,11.438,0,0,0,1.555-5.579,5.58,5.58,0,0,0-1.408-3.94,4.679,4.679,0,0,0-3.594-1.523,6.247,6.247,0,0,0-4.255,1.828,28.563,28.563,0,0,0-4.7,6.43q0.735-2.311,1.87-5.779a34.956,34.956,0,0,0,1.408-4.77,0.756,0.756,0,0,0-.451-0.715,3.346,3.346,0,0,0-1.44-.231q-2.921,0-3.95,5.4-0.421,2.269-.757,3.741l-0.105.5q-2.312,10.465-6.43,10.759l-0.8,2.837a8.765,8.765,0,0,0,1.954-.315,6.3,6.3,0,0,0,1.6-.715q-0.777,2.711-2.069,6.336a21.128,21.128,0,0,0-1.293,4.423,0.576,0.576,0,0,0,.357.494,1.841,1.841,0,0,0,.9.2,6.788,6.788,0,0,0,2.742-.389,2.052,2.052,0,0,0,1.041-1.5c0.055-.224.126-0.546,0.21-0.967a77.108,77.108,0,0,1,2.458-8.889A8.552,8.552,0,0,0,507.817,65.233Zm3.919-12.44q2.385-3.141,4.318-3.142a1.83,1.83,0,0,1,1.555.767,3.448,3.448,0,0,1,.567,2.091,9.276,9.276,0,0,1-1.229,4.329,15.433,15.433,0,0,1-3.352,4.224,11.039,11.039,0,0,0-1.628-.494,6.872,6.872,0,0,0-1.419-.158A6.6,6.6,0,0,0,509,60.6a8.911,8.911,0,0,0-1.65.588A33.8,33.8,0,0,1,511.736,52.792ZM531.107,57.9a6.037,6.037,0,0,1-.231-1.776,8.472,8.472,0,0,1,1.345-4.76,3.767,3.767,0,0,1,3.089-2.049,1.669,1.669,0,0,1,1.282.473,1.947,1.947,0,0,1,.441,1.376,8.419,8.419,0,0,1-1.492,4.234,12.067,12.067,0,0,1-3.677,3.856A3.751,3.751,0,0,1,531.107,57.9Zm1.681,7.376a15,15,0,0,0,4.14.515H537.5l0.82-2.837h-0.294a8.143,8.143,0,0,1-2.553-.347,5.254,5.254,0,0,1-1.923-1.166,18.975,18.975,0,0,0,4.844-5.285,10.759,10.759,0,0,0,1.817-5.474,4.936,4.936,0,0,0-1.271-3.583,4.589,4.589,0,0,0-3.457-1.313,8.929,8.929,0,0,0-6.777,3.11,10.437,10.437,0,0,0-2.868,7.313,11.712,11.712,0,0,0,.378,3.152,7.071,7.071,0,0,0,1.177,2.4,14.248,14.248,0,0,1-2.385.8,16.68,16.68,0,0,1-2.68.4l-0.84,2.837a19.824,19.824,0,0,0,4.129-.609,22.651,22.651,0,0,0,4.087-1.492A8.5,8.5,0,0,0,532.788,65.275ZM544.693,62q2.994-3.562,5.81-11.694a11.733,11.733,0,0,1,1.849,1.25,1.359,1.359,0,0,1,.547.956,15.24,15.24,0,0,1-1.587,4.4,13.963,13.963,0,0,0-1.586,5.18,2.96,2.96,0,0,0,1.66,2.826,12.451,12.451,0,0,0,5.442.872h0.631l0.819-2.816a10.453,10.453,0,0,1-2.994-.515,1.1,1.1,0,0,1-.578-1.061,14.3,14.3,0,0,1,1.681-4.77,14.091,14.091,0,0,0,1.681-4.9q0-1.639-3.089-3.3-1.7-.946-2.774-1.618a3.847,3.847,0,0,0,.336-0.872,3.94,3.94,0,0,0,.106-0.935,2.2,2.2,0,0,0-.673-1.681,2.566,2.566,0,0,0-1.828-.63,2.606,2.606,0,0,0-2.091,1,3.792,3.792,0,0,0-.83,2.511,3.659,3.659,0,0,0,.231,1.345,3.113,3.113,0,0,0,.715,1.072q-2.838,7.691-5,10.791t-4.77,3.541l-0.82,2.837A9.8,9.8,0,0,0,544.693,62Z" transform="translate(-358.313 -32.844)"/>
</svg>
